<?xml version="1.0" standalone="no"?><!DOCTYPE svg PUBLIC "-//W3C//DTD SVG 1.1//EN" "http://www.w3.org/Graphics/SVG/1.1/DTD/svg11.dtd"><svg t="1731912255048" class="icon" viewBox="0 0 1024 1024" version="1.1" xmlns="http://www.w3.org/2000/svg" p-id="2085" xmlns:xlink="http://www.w3.org/1999/xlink" width="200" height="200"><path d="M990 844.6H299.2c-8.3 0-15-6.7-15-15s6.7-15 15-15H990c8.3 0 15 6.7 15 15s-6.7 15-15 15zM746.3 533.4h-328c-8.3 0-15-6.7-15-15s6.7-15 15-15h328c8.3 0 15 6.7 15 15s-6.7 15-15 15z" fill="" p-id="2086"></path><path d="M969.6 844.6h-77.8c-8.3 0-15-6.7-15-15V632c0-8.3 6.7-15 15-15h77.8c8.3 0 15 6.7 15 15v197.6c0 8.3-6.8 15-15 15z m-62.8-30h47.8V647h-47.8v167.6z" fill="" p-id="2087"></path><path d="M891.8 844.6H814c-8.3 0-15-6.7-15-15v-251c0-8.3 6.7-15 15-15h77.8c8.3 0 15 6.7 15 15v251c0 8.3-6.8 15-15 15z m-62.8-30h47.8v-221H829v221z" fill="" p-id="2088"></path><path d="M814 844.6h-77.8c-8.3 0-15-6.7-15-15V608.5c0-8.3 6.7-15 15-15H814c8.3 0 15 6.7 15 15v221.1c0 8.3-6.8 15-15 15z m-62.8-30H799V623.5h-47.8v191.1zM680.3 533.4h-77.8c-8.3 0-15-6.7-15-15V320.9c0-8.3 6.7-15 15-15h77.8c8.3 0 15 6.7 15 15v197.6c0 8.2-6.7 14.9-15 14.9z m-62.8-30h47.8V335.9h-47.8v167.5z" fill="" p-id="2089"></path><path d="M602.5 533.4h-77.8c-8.3 0-15-6.7-15-15v-251c0-8.3 6.7-15 15-15h77.8c8.3 0 15 6.7 15 15v251c0 8.3-6.7 15-15 15z m-62.8-30h47.8v-221h-47.8v221z" fill="" p-id="2090"></path><path d="M524.7 533.4h-77.8c-8.3 0-15-6.7-15-15v-221c0-8.3 6.7-15 15-15h77.8c8.3 0 15 6.7 15 15v221.1c0 8.2-6.7 14.9-15 14.9z m-62.8-30h47.8v-191h-47.8v191zM736.2 844.6h-77.8c-8.3 0-15-6.7-15-15v-251c0-8.3 6.7-15 15-15h77.8c8.3 0 15 6.7 15 15v251c0 8.3-6.8 15-15 15z m-62.8-30h47.8v-221h-47.8v221z" fill="" p-id="2091"></path><path d="M520.8 841.9c-2.6 0-5.2-0.7-7.5-2L445.9 801c-7.2-4.1-9.6-13.3-5.5-20.5L551 589.1c2-3.4 5.3-6 9.1-7s7.9-0.5 11.4 1.5l67.4 38.9c7.2 4.1 9.6 13.3 5.5 20.5L533.8 834.4c-2 3.4-5.3 6-9.1 7-1.3 0.4-2.6 0.5-3.9 0.5z m-46.9-59.4l41.4 23.9L610.8 641l-41.4-23.9-95.5 165.4zM346.1 844.6H36c-8.3 0-15-6.7-15-15V207c0-8.3 6.7-15 15-15h310.1c8.3 0 15 6.7 15 15v622.6c0 8.3-6.7 15-15 15zM51 814.6h280.1V222H51v592.6z" fill="" p-id="2092"></path><path d="M256.7 844.2H125.4c-8.3 0-15-6.7-15-15V682.5c0-9.1 3.2-18 9.1-25 27.6-32.6 39-85.2 7.4-122.7l-5.8-6.8c-3.8-4.5-4.6-10.7-2.1-16 2.5-5.3 7.8-8.7 13.6-8.7h116.6c5.6 0 10.7 3.1 13.3 8 2.6 4.9 2.3 10.9-0.9 15.5l-10.9 16c-20.4 29.9-17.2 72.5 8.2 108.4l5.5 7.7c4.6 6.6 7.1 14.3 7.1 22.3v147.9c0.2 8.4-6.6 15.1-14.8 15.1z m-116.3-30h101.2V681.3c0-1.8-0.5-3.5-1.6-5l-5.5-7.7c-30.7-43.5-35.5-95.6-13.1-135.2h-59.3c10.4 19.1 15.2 41.1 13.5 64-2.1 28.5-13.9 56.7-33.2 79.6-1.3 1.6-2 3.5-2 5.6v131.6z" fill="" p-id="2093"></path></svg>